<mxfile host="app.diagrams.net" modified="2020-11-06T08:16:48.243Z" agent="5.0 (Windows NT 10.0; Win64; x64) AppleWebKit/537.36 (KHTML, like Gecko) Chrome/85.0.4183.102 YaBrowser/20.9.3.126 Yowser/2.5 Safari/537.36" etag="lKCkcuKmW11bJNWK3PmB" version="13.9.0" type="github">
  <diagram id="wE6TIS16id_fP7kHf7kX" name="Page-1">
    <mxGraphModel dx="990" dy="589" grid="1" gridSize="10" guides="1" tooltips="1" connect="1" arrows="1" fold="1" page="1" pageScale="1" pageWidth="827" pageHeight="1169" math="0" shadow="0">
      <root>
        <mxCell id="0" />
        <mxCell id="1" parent="0" />
        <mxCell id="heLu0DOsVDMk59JwkCFb-1" value="Actor" style="shape=umlActor;verticalLabelPosition=bottom;verticalAlign=top;html=1;" vertex="1" parent="1">
          <mxGeometry x="100" y="300" width="30" height="60" as="geometry" />
        </mxCell>
        <mxCell id="heLu0DOsVDMk59JwkCFb-2" value="Вход в систему" style="ellipse;whiteSpace=wrap;html=1;align=center;" vertex="1" parent="1">
          <mxGeometry x="200" y="250" width="100" height="40" as="geometry" />
        </mxCell>
        <mxCell id="heLu0DOsVDMk59JwkCFb-3" value="" style="endArrow=none;html=1;exitX=1;exitY=0.3333333333333333;exitDx=0;exitDy=0;exitPerimeter=0;entryX=0.012;entryY=0.68;entryDx=0;entryDy=0;entryPerimeter=0;" edge="1" parent="1" source="heLu0DOsVDMk59JwkCFb-1" target="heLu0DOsVDMk59JwkCFb-2">
          <mxGeometry width="50" height="50" relative="1" as="geometry">
            <mxPoint x="150" y="340" as="sourcePoint" />
            <mxPoint x="200" y="290" as="targetPoint" />
          </mxGeometry>
        </mxCell>
        <mxCell id="heLu0DOsVDMk59JwkCFb-4" value="Вход в систему&lt;br&gt;с использованием логина" style="ellipse;whiteSpace=wrap;html=1;align=center;" vertex="1" parent="1">
          <mxGeometry x="420" y="140" width="190" height="40" as="geometry" />
        </mxCell>
        <mxCell id="heLu0DOsVDMk59JwkCFb-5" value="Вход в систему&amp;nbsp;&lt;br&gt;с использованием Google Account" style="ellipse;whiteSpace=wrap;html=1;align=center;" vertex="1" parent="1">
          <mxGeometry x="420" y="200" width="190" height="40" as="geometry" />
        </mxCell>
        <mxCell id="heLu0DOsVDMk59JwkCFb-6" value="Вход в систему&lt;br&gt;c использованием Facebook" style="ellipse;whiteSpace=wrap;html=1;align=center;" vertex="1" parent="1">
          <mxGeometry x="420" y="250" width="230" height="40" as="geometry" />
        </mxCell>
        <mxCell id="heLu0DOsVDMk59JwkCFb-11" value="Вход в систему&lt;br&gt;c использованием SMS" style="ellipse;whiteSpace=wrap;html=1;align=center;" vertex="1" parent="1">
          <mxGeometry x="430" y="90" width="230" height="40" as="geometry" />
        </mxCell>
        <mxCell id="heLu0DOsVDMk59JwkCFb-13" value="" style="endArrow=none;html=1;exitX=1;exitY=0.3333333333333333;exitDx=0;exitDy=0;exitPerimeter=0;entryX=0;entryY=0.5;entryDx=0;entryDy=0;" edge="1" parent="1" source="heLu0DOsVDMk59JwkCFb-1" target="heLu0DOsVDMk59JwkCFb-14">
          <mxGeometry width="50" height="50" relative="1" as="geometry">
            <mxPoint x="140" y="330" as="sourcePoint" />
            <mxPoint x="200" y="320" as="targetPoint" />
          </mxGeometry>
        </mxCell>
        <mxCell id="heLu0DOsVDMk59JwkCFb-14" value="Взаимодействие с интерфейсом" style="ellipse;whiteSpace=wrap;html=1;align=center;" vertex="1" parent="1">
          <mxGeometry x="200" y="300" width="120" height="40" as="geometry" />
        </mxCell>
        <mxCell id="heLu0DOsVDMk59JwkCFb-16" value="" style="endArrow=none;html=1;exitX=1;exitY=0.3333333333333333;exitDx=0;exitDy=0;exitPerimeter=0;entryX=0;entryY=0.5;entryDx=0;entryDy=0;" edge="1" parent="1" target="heLu0DOsVDMk59JwkCFb-17" source="heLu0DOsVDMk59JwkCFb-1">
          <mxGeometry width="50" height="50" relative="1" as="geometry">
            <mxPoint x="140" y="370" as="sourcePoint" />
            <mxPoint x="210" y="370" as="targetPoint" />
          </mxGeometry>
        </mxCell>
        <mxCell id="heLu0DOsVDMk59JwkCFb-17" value="Управление аккаунтом" style="ellipse;whiteSpace=wrap;html=1;align=center;" vertex="1" parent="1">
          <mxGeometry x="210" y="350" width="120" height="40" as="geometry" />
        </mxCell>
        <mxCell id="heLu0DOsVDMk59JwkCFb-19" value="Смена пароля" style="ellipse;whiteSpace=wrap;html=1;align=center;" vertex="1" parent="1">
          <mxGeometry x="370" y="320" width="90" height="40" as="geometry" />
        </mxCell>
        <mxCell id="heLu0DOsVDMk59JwkCFb-20" value="Сброс пароля" style="ellipse;whiteSpace=wrap;html=1;align=center;" vertex="1" parent="1">
          <mxGeometry x="310" y="120" width="90" height="40" as="geometry" />
        </mxCell>
        <mxCell id="heLu0DOsVDMk59JwkCFb-22" value="Use" style="endArrow=open;endSize=12;dashed=1;html=1;exitX=1;exitY=0.5;exitDx=0;exitDy=0;entryX=0;entryY=1;entryDx=0;entryDy=0;" edge="1" parent="1" source="heLu0DOsVDMk59JwkCFb-17" target="heLu0DOsVDMk59JwkCFb-19">
          <mxGeometry width="160" relative="1" as="geometry">
            <mxPoint x="280" y="430" as="sourcePoint" />
            <mxPoint x="440" y="430" as="targetPoint" />
          </mxGeometry>
        </mxCell>
        <mxCell id="heLu0DOsVDMk59JwkCFb-23" value="Use" style="endArrow=open;endSize=12;dashed=1;html=1;exitX=1;exitY=0.5;exitDx=0;exitDy=0;entryX=0;entryY=0.5;entryDx=0;entryDy=0;" edge="1" parent="1" source="heLu0DOsVDMk59JwkCFb-2" target="heLu0DOsVDMk59JwkCFb-6">
          <mxGeometry width="160" relative="1" as="geometry">
            <mxPoint x="310" y="300" as="sourcePoint" />
            <mxPoint x="470" y="300" as="targetPoint" />
          </mxGeometry>
        </mxCell>
        <mxCell id="heLu0DOsVDMk59JwkCFb-24" value="Use" style="endArrow=open;endSize=12;dashed=1;html=1;exitX=1;exitY=0.5;exitDx=0;exitDy=0;entryX=0;entryY=0.5;entryDx=0;entryDy=0;" edge="1" parent="1" source="heLu0DOsVDMk59JwkCFb-2" target="heLu0DOsVDMk59JwkCFb-5">
          <mxGeometry width="160" relative="1" as="geometry">
            <mxPoint x="310" y="280" as="sourcePoint" />
            <mxPoint x="430" y="280" as="targetPoint" />
          </mxGeometry>
        </mxCell>
        <mxCell id="heLu0DOsVDMk59JwkCFb-25" value="Use" style="endArrow=open;endSize=12;dashed=1;html=1;exitX=1;exitY=0.5;exitDx=0;exitDy=0;entryX=0;entryY=1;entryDx=0;entryDy=0;" edge="1" parent="1" source="heLu0DOsVDMk59JwkCFb-2" target="heLu0DOsVDMk59JwkCFb-4">
          <mxGeometry width="160" relative="1" as="geometry">
            <mxPoint x="310" y="280" as="sourcePoint" />
            <mxPoint x="430" y="230" as="targetPoint" />
          </mxGeometry>
        </mxCell>
        <mxCell id="heLu0DOsVDMk59JwkCFb-26" value="Use" style="endArrow=open;endSize=12;dashed=1;html=1;exitX=1;exitY=0.5;exitDx=0;exitDy=0;entryX=0.021;entryY=0.74;entryDx=0;entryDy=0;entryPerimeter=0;" edge="1" parent="1" source="heLu0DOsVDMk59JwkCFb-2" target="heLu0DOsVDMk59JwkCFb-11">
          <mxGeometry width="160" relative="1" as="geometry">
            <mxPoint x="310" y="255.86" as="sourcePoint" />
            <mxPoint x="457.824855787278" y="160.00213562373108" as="targetPoint" />
          </mxGeometry>
        </mxCell>
        <mxCell id="heLu0DOsVDMk59JwkCFb-27" value="Use" style="endArrow=open;endSize=12;dashed=1;html=1;exitX=1;exitY=0.5;exitDx=0;exitDy=0;entryX=0.5;entryY=1;entryDx=0;entryDy=0;" edge="1" parent="1" source="heLu0DOsVDMk59JwkCFb-2" target="heLu0DOsVDMk59JwkCFb-20">
          <mxGeometry width="160" relative="1" as="geometry">
            <mxPoint x="310" y="280" as="sourcePoint" />
            <mxPoint x="444.8299999999999" y="129.60000000000002" as="targetPoint" />
          </mxGeometry>
        </mxCell>
        <mxCell id="heLu0DOsVDMk59JwkCFb-28" value="Use" style="endArrow=open;endSize=12;dashed=1;html=1;exitX=1;exitY=0.5;exitDx=0;exitDy=0;entryX=0;entryY=0.5;entryDx=0;entryDy=0;" edge="1" parent="1" source="heLu0DOsVDMk59JwkCFb-17" target="heLu0DOsVDMk59JwkCFb-29">
          <mxGeometry width="160" relative="1" as="geometry">
            <mxPoint x="340" y="380" as="sourcePoint" />
            <mxPoint x="390" y="380" as="targetPoint" />
          </mxGeometry>
        </mxCell>
        <mxCell id="heLu0DOsVDMk59JwkCFb-29" value="Смена логина" style="ellipse;whiteSpace=wrap;html=1;align=center;" vertex="1" parent="1">
          <mxGeometry x="390" y="360" width="90" height="40" as="geometry" />
        </mxCell>
        <mxCell id="heLu0DOsVDMk59JwkCFb-31" value="Use" style="endArrow=open;endSize=12;dashed=1;html=1;exitX=1;exitY=0.5;exitDx=0;exitDy=0;entryX=0;entryY=0.5;entryDx=0;entryDy=0;" edge="1" parent="1" source="heLu0DOsVDMk59JwkCFb-17" target="heLu0DOsVDMk59JwkCFb-32">
          <mxGeometry width="160" relative="1" as="geometry">
            <mxPoint x="340" y="380" as="sourcePoint" />
            <mxPoint x="380" y="410" as="targetPoint" />
          </mxGeometry>
        </mxCell>
        <mxCell id="heLu0DOsVDMk59JwkCFb-32" value="Привязка телефона" style="ellipse;whiteSpace=wrap;html=1;align=center;" vertex="1" parent="1">
          <mxGeometry x="390" y="400" width="90" height="40" as="geometry" />
        </mxCell>
      </root>
    </mxGraphModel>
  </diagram>
</mxfile>
